REM DATE 2003/11/25
PERFORMER "梁静茹"
TITLE "恋爱的力量I"
FILE "2003年11月25日_梁静茹.-.[恋爱的力量CD1].ape" WAVE
  TRACK 01 AUDIO
    TITLE "Fly away"
    INDEX 01 00:00:00
  TRACK 02 AUDIO
    TITLE "听不到"
    INDEX 00 04:22:62
    INDEX 01 04:24:20
  TRACK 03 AUDIO
    TITLE "Tiffany"
    INDEX 00 08:19:60
    INDEX 01 08:21:07
  TRACK 04 AUDIO
    TITLE "爱是..."
    INDEX 01 12:25:05
  TRACK 05 AUDIO
    TITLE "一夜长大"
    INDEX 00 16:46:20
    INDEX 01 16:48:10
  TRACK 06 AUDIO
    TITLE "勇气"
    INDEX 00 21:14:67
    INDEX 01 21:16:15
  TRACK 07 AUDIO
    TITLE "无条件为你"
    INDEX 00 25:13:70
    INDEX 01 25:15:10
  TRACK 08 AUDIO
    TITLE "分手快乐（独唱版）"
    INDEX 00 29:36:42
    INDEX 01 29:37:65
  TRACK 09 AUDIO
    TITLE "我喜欢"
    INDEX 00 34:12:22
    INDEX 01 34:13:42
  TRACK 10 AUDIO
    TITLE "为我好"
    INDEX 00 39:04:37
    INDEX 01 39:05:55
